# xmcd
#
# Track frame offsets:
#	150
#	16351
#	39372
#	59924
#
# Disc length: 1096 seconds
#
# Revision: 0
# Processed by: cddbd v1.5.2PL0 Copyright (c) Steve Scherf et al.
# Submitted via: audiograbber 1.83.01
#
DISCID=30044604
DTITLE=Dark Horse - Country Band
DYEAR=1900
DGENRE=Country
TTITLE0=Down At The Twist And Shout
TTITLE1=Jukebox Lady
TTITLE2=City Of New Orleans
TTITLE3=That Summer
EXTD=
EXTT0=
EXTT1=
EXTT2=
EXTT3=
PLAYORDER=
